<svg id="Camada_1" data-name="Camada 1" xmlns="http://www.w3.org/2000/svg" viewBox="0 0 488.44 226.44"><defs><style>.cls-1{fill:#2d70de;}.cls-2{fill:#0a1a3f;}</style></defs><path class="cls-1" d="M51.57,185.06c0,14.66-10.37,24.58-25.74,24.58S0,199.72,0,185.06s10.37-24.48,25.83-24.48S51.57,170.32,51.57,185.06Zm-37.81.18c0,7.87,4.92,13.23,12.07,13.23s12-5.36,12-13.23S32.89,172,25.83,172,13.76,177.38,13.76,185.24Z"/><path class="cls-1" d="M110.91,185.33c0,14.57-8.84,24.31-22.34,24.31-6.7,0-12-2.68-15.46-7.51v24.31H59.35V161H73.11v7.06c3.4-4.82,8.67-7.5,15.19-7.5C101.8,160.58,110.91,170.5,110.91,185.33ZM97,184.89c0-7.69-4.82-13.23-11.89-13.23s-12,5.45-12,13.23c0,8,4.92,13.31,12,13.31S97,192.75,97,184.89Z"/><path class="cls-1" d="M164.9,189H128.52c1.34,6,6.44,9.65,13.77,9.65A16.29,16.29,0,0,0,154.35,194l7.42,8c-4.47,5.1-11.17,7.78-19.84,7.78-16.62,0-27.44-10.46-27.44-24.76s11-24.75,25.65-24.75c14.12,0,25,9.47,25,24.93C165.17,186.31,165,187.83,164.9,189Zm-36.56-8.14H152a11.44,11.44,0,0,0-11.8-10C133.89,170.85,129.33,174.7,128.34,180.86Z"/><path class="cls-1" d="M220.85,178.9v30.2H207.08V182.92c0-6.08-3.57-9.83-9.47-9.83-6.88.09-11,5.27-11,12.33V209.1H172.86V161h13.76v8.4c3.39-6,9.11-8.84,16.62-8.93C214,160.49,220.85,167.64,220.85,178.9Z"/><path class="cls-2" d="M264.47,170.5c-3.22,0-5.55,1.07-5.55,3.57,0,7.24,25.39,3.58,25.3,20.56,0,9.83-8.67,15-19.58,15-7.77,0-15.37-2.32-20.82-6.7l4.47-9.3a28.92,28.92,0,0,0,16.71,6c3.49,0,6.08-1.16,6.08-3.75,0-7.69-24.93-3.58-24.93-20.47,0-9.92,8.49-15,18.94-15a35.81,35.81,0,0,1,18.77,5.36l-4.74,9.38C273.85,172.19,268.49,170.5,264.47,170.5Z"/><path class="cls-2" d="M339,161V209.1H325.33v-6.88c-3.4,4.74-8.58,7.42-15.1,7.42-13.68,0-22.7-9.92-22.7-24.75,0-14.57,8.84-24.31,22.25-24.4,6.79,0,12.06,2.68,15.55,7.5v-7Zm-13.67,25.83v-3.22c-.71-7-5.36-11.7-11.89-11.7-7.15,0-12.06,5.54-12.15,13.31.09,7.87,4.92,13.32,12.15,13.32C320,198.56,324.62,193.82,325.33,186.85Z"/><path class="cls-2" d="M357.86,161l11.35,35,11.27-35h13.67L376,209.1H361.89l-18.24-48Z"/><path class="cls-2" d="M445.09,189H408.72c1.34,6,6.44,9.65,13.76,9.65A16.3,16.3,0,0,0,434.55,194l7.42,8c-4.47,5.1-11.17,7.78-19.84,7.78-16.63,0-27.44-10.46-27.44-24.76s11-24.75,25.65-24.75c14.12,0,25,9.47,25,24.93C445.36,186.31,445.18,187.83,445.09,189Zm-36.55-8.14h23.69a11.44,11.44,0,0,0-11.8-10C414.08,170.85,409.53,174.7,408.54,180.86Z"/><path class="cls-2" d="M468.69,170.5c-3.21,0-5.54,1.07-5.54,3.57,0,7.24,25.38,3.58,25.29,20.56,0,9.83-8.67,15-19.57,15-7.77,0-15.37-2.32-20.82-6.7l4.47-9.3a28.92,28.92,0,0,0,16.71,6c3.48,0,6.08-1.16,6.08-3.75,0-7.69-24.94-3.58-24.94-20.47,0-9.92,8.49-15,18.95-15a35.86,35.86,0,0,1,18.77,5.36l-4.74,9.38C478.08,172.19,472.71,170.5,468.69,170.5Z"/><path class="cls-2" d="M244.22,126.94A63.47,63.47,0,0,1,244.22,0a8.95,8.95,0,0,1,0,17.89A45.58,45.58,0,1,0,289.8,63.47a8.95,8.95,0,0,1,17.89,0A63.54,63.54,0,0,1,244.22,126.94Z"/><path class="cls-1" d="M229.7,54.68a4.7,4.7,0,0,1-3.32-8l18.76-18.76a4.7,4.7,0,0,1,6.65,6.64L233,53.31a4.68,4.68,0,0,1-3.32,1.37Z"/><path class="cls-1" d="M248.46,54.68a4.7,4.7,0,0,1-3.32-1.37L226.38,34.55A4.7,4.7,0,0,1,233,27.91l18.77,18.76a4.69,4.69,0,0,1-3.33,8Z"/><circle class="cls-1" cx="230.08" cy="81.85" r="12.6"/><path class="cls-1" d="M268.34,51.7l3.88,7.44a1.82,1.82,0,0,0,1.29,1l8.28,1.38a1.79,1.79,0,0,1,1,3l-5.88,6a1.79,1.79,0,0,0-.5,1.52l1.25,8.3a1.8,1.8,0,0,1-2.58,1.87l-7.51-3.74a1.8,1.8,0,0,0-1.6,0l-7.51,3.74a1.79,1.79,0,0,1-2.57-1.87l1.24-8.3a1.79,1.79,0,0,0-.5-1.52l-5.88-6a1.79,1.79,0,0,1,1-3L260,60.09a1.82,1.82,0,0,0,1.3-1l3.87-7.44A1.79,1.79,0,0,1,268.34,51.7Z"/><path class="cls-1" d="M282.71,17.05H272.37A3.82,3.82,0,0,0,269.05,19l-5.17,9a3.82,3.82,0,0,0,0,3.84l5.17,9a3.82,3.82,0,0,0,3.32,1.92h10.34A3.82,3.82,0,0,0,286,40.71l5.17-8.95a3.82,3.82,0,0,0,0-3.84L286,19A3.82,3.82,0,0,0,282.71,17.05Z"/></svg>