<svg id="Camada_1" data-name="Camada 1" xmlns="http://www.w3.org/2000/svg" viewBox="0 0 645.02 126.94"><defs><style>.cls-1{fill:#2d70de;}.cls-2{fill:#0a1a3f;}</style></defs><path class="cls-1" d="M208.14,67.05c0,14.66-10.37,24.58-25.74,24.58s-25.83-9.92-25.83-24.58,10.37-24.49,25.83-24.49S208.14,52.3,208.14,67.05Zm-37.8.18c0,7.86,4.91,13.23,12.06,13.23s12-5.37,12-13.23S189.46,54,182.4,54,170.34,59.37,170.34,67.23Z"/><path class="cls-1" d="M267.49,67.32c0,14.57-8.85,24.31-22.35,24.31-6.7,0-12-2.68-15.46-7.51v24.31H215.92V43h13.76v7.06c3.4-4.83,8.67-7.51,15.2-7.51C258.37,42.56,267.49,52.48,267.49,67.32Zm-13.94-.45c0-7.68-4.83-13.22-11.89-13.22s-12,5.45-12,13.22c0,8,4.92,13.32,12,13.32S253.55,74.74,253.55,66.87Z"/><path class="cls-1" d="M321.47,71H285.1c1.34,6,6.43,9.66,13.76,9.66A16.3,16.3,0,0,0,310.93,76l7.41,8c-4.46,5.1-11.17,7.78-19.84,7.78-16.62,0-27.43-10.46-27.43-24.76s11-24.75,25.65-24.75c14.12,0,25,9.47,25,24.93C321.74,68.3,321.56,69.82,321.47,71Zm-36.55-8.13H308.6a11.42,11.42,0,0,0-11.79-10C290.46,52.84,285.9,56.68,284.92,62.85Z"/><path class="cls-1" d="M377.42,60.88V91.09H363.66V64.91c0-6.08-3.58-9.83-9.47-9.83-6.89.08-11,5.27-11,12.33V91.09H329.43V43h13.76v8.4c3.4-6,9.12-8.85,16.63-8.94C370.54,42.47,377.42,49.62,377.42,60.88Z"/><path class="cls-2" d="M421,52.48c-3.22,0-5.54,1.08-5.54,3.58,0,7.24,25.38,3.57,25.29,20.55,0,9.83-8.67,15-19.57,15-7.78,0-15.37-2.33-20.82-6.7l4.46-9.3a29,29,0,0,0,16.72,6c3.48,0,6.07-1.16,6.07-3.76,0-7.68-24.93-3.57-24.93-20.46,0-9.92,8.49-15,18.95-15a35.81,35.81,0,0,1,18.76,5.37l-4.73,9.38C430.43,54.18,425.06,52.48,421,52.48Z"/><path class="cls-2" d="M495.58,43V91.09H481.91V84.21c-3.4,4.74-8.58,7.42-15.11,7.42-13.67,0-22.7-9.92-22.7-24.76,0-14.57,8.85-24.31,22.25-24.4,6.8,0,12.07,2.69,15.56,7.51V43ZM481.91,68.84V65.62c-.72-7-5.37-11.71-11.89-11.71-7.15,0-12.07,5.54-12.16,13.32.09,7.86,4.92,13.32,12.16,13.32C476.54,80.55,481.19,75.81,481.91,68.84Z"/><path class="cls-2" d="M514.44,43l11.35,35,11.26-35h13.67L532.58,91.09H518.46l-18.23-48Z"/><path class="cls-2" d="M601.67,71H565.3c1.34,6,6.43,9.66,13.76,9.66A16.28,16.28,0,0,0,591.12,76l7.42,8c-4.47,5.1-11.17,7.78-19.84,7.78-16.62,0-27.44-10.46-27.44-24.76s11-24.75,25.65-24.75c14.12,0,25,9.47,25,24.93C601.94,68.3,601.76,69.82,601.67,71Zm-36.55-8.13H588.8a11.42,11.42,0,0,0-11.8-10C570.66,52.84,566.1,56.68,565.12,62.85Z"/><path class="cls-2" d="M625.27,52.48c-3.22,0-5.54,1.08-5.54,3.58,0,7.24,25.38,3.57,25.29,20.55,0,9.83-8.67,15-19.57,15-7.78,0-15.38-2.33-20.83-6.7l4.47-9.3a29,29,0,0,0,16.71,6c3.49,0,6.08-1.16,6.08-3.76,0-7.68-24.93-3.57-24.93-20.46,0-9.92,8.49-15,18.94-15a35.82,35.82,0,0,1,18.77,5.37l-4.74,9.38C634.65,54.18,629.29,52.48,625.27,52.48Z"/><path class="cls-2" d="M63.47,126.94A63.47,63.47,0,0,1,63.47,0a8.95,8.95,0,0,1,0,17.89,45.58,45.58,0,1,0,45.58,45.58,8.95,8.95,0,0,1,17.89,0A63.54,63.54,0,0,1,63.47,126.94Z"/><path class="cls-1" d="M49,54.68a4.7,4.7,0,0,1-3.32-8L64.39,27.91A4.7,4.7,0,0,1,71,34.55L52.27,53.31A4.7,4.7,0,0,1,49,54.68Z"/><path class="cls-1" d="M67.71,54.68a4.7,4.7,0,0,1-3.32-1.37L45.63,34.55a4.7,4.7,0,0,1,6.64-6.64L71,46.67a4.69,4.69,0,0,1-3.32,8Z"/><circle class="cls-1" cx="49.33" cy="81.85" r="12.6"/><path class="cls-1" d="M87.59,51.7l3.87,7.44a1.82,1.82,0,0,0,1.3,1L101,61.47a1.79,1.79,0,0,1,1,3l-5.88,6a1.79,1.79,0,0,0-.5,1.52l1.24,8.3a1.79,1.79,0,0,1-2.57,1.87L86.8,78.43a1.8,1.8,0,0,0-1.6,0l-7.51,3.74a1.8,1.8,0,0,1-2.58-1.87L76.36,72a1.79,1.79,0,0,0-.5-1.52l-5.88-6a1.79,1.79,0,0,1,1-3l8.28-1.38a1.82,1.82,0,0,0,1.29-1l3.88-7.44A1.79,1.79,0,0,1,87.59,51.7Z"/><path class="cls-1" d="M102,17.05H91.62A3.85,3.85,0,0,0,88.29,19l-5.17,9a3.87,3.87,0,0,0,0,3.84l5.17,9a3.85,3.85,0,0,0,3.33,1.92H102a3.83,3.83,0,0,0,3.32-1.92l5.17-8.95a3.87,3.87,0,0,0,0-3.84l-5.17-9A3.83,3.83,0,0,0,102,17.05Z"/></svg>